<svg width="37" height="35" viewBox="0 0 37 35" fill="none" xmlns="http://www.w3.org/2000/svg">
<path d="M18.9948 35.0001C28.9388 35.0001 37 27.165 37 17.5C37 7.83503 28.9388 0 18.9948 0C9.05082 0 0.989624 7.83503 0.989624 17.5C0.989624 27.165 9.05082 35.0001 18.9948 35.0001Z" fill="#0CAA41"/>
<path fill-rule="evenodd" clip-rule="evenodd" d="M22.8525 23.7515H12.5629C12.5629 25.1324 13.7128 26.25 15.1335 26.25H22.849C24.2697 26.25 25.4197 25.1324 25.4197 23.7515V13.4839C25.4197 13.4326 25.3775 13.3916 25.3247 13.3916H22.9405C22.8877 13.3916 22.8455 13.4326 22.8455 13.4839V23.7515H22.8525ZM22.8525 8.75C24.2733 8.75 25.4232 9.86768 25.4232 11.2485H15.137V21.5161C15.137 21.5674 15.0948 21.6084 15.0421 21.6084H12.6578C12.6051 21.6084 12.5629 21.5674 12.5629 21.5161V11.2485C12.5629 9.86768 13.7128 8.75 15.1335 8.75H22.8525Z" fill="white"/>
</svg>
