<svg width="37" height="35" viewBox="0 0 37 35" fill="none" xmlns="http://www.w3.org/2000/svg">
<path d="M18.5001 35.0001C28.444 35.0001 36.5052 27.165 36.5052 17.5C36.5052 7.83503 28.444 0 18.5001 0C8.55607 0 0.494873 7.83503 0.494873 17.5C0.494873 27.165 8.55607 35.0001 18.5001 35.0001Z" fill="#E4405F"/>
<path d="M18.5001 8.75C16.056 8.75 15.75 8.76025 14.79 8.80127C13.83 8.8457 13.1794 8.99268 12.6062 9.20801C12.0154 9.43018 11.5125 9.73096 11.0096 10.2163C10.5067 10.7017 10.2008 11.1904 9.97221 11.7681C9.75066 12.3252 9.59944 12.9609 9.55373 13.8906C9.50801 14.8237 9.50098 15.1211 9.50098 17.4966C9.50098 19.8721 9.51153 20.1695 9.55373 21.1026C9.59944 22.0322 9.75066 22.668 9.97221 23.2251C10.2008 23.7993 10.5103 24.2881 11.0096 24.7769C11.509 25.2622 12.0119 25.563 12.6062 25.7852C13.1794 26.0005 13.8335 26.1475 14.79 26.1919C15.75 26.2364 16.056 26.2432 18.5001 26.2432C20.9441 26.2432 21.2501 26.2329 22.2101 26.1919C23.1666 26.1475 23.8207 26.0005 24.3939 25.7852C24.9847 25.563 25.4876 25.2622 25.9905 24.7769C26.4899 24.2915 26.7993 23.8028 27.0279 23.2251C27.2494 22.668 27.4007 22.0322 27.4464 21.1026C27.4921 20.1695 27.4991 19.8721 27.4991 17.4966C27.4991 15.1211 27.4886 14.8237 27.4464 13.8906C27.4007 12.9609 27.2494 12.3252 27.0279 11.7681C26.7993 11.1939 26.4899 10.7051 25.9905 10.2163C25.4911 9.73096 24.9882 9.43018 24.3939 9.20801C23.8207 8.99268 23.1666 8.8457 22.2101 8.80127C21.2501 8.76025 20.9441 8.75 18.5001 8.75ZM18.5001 10.3257C20.9019 10.3257 21.1903 10.3359 22.1398 10.377C23.0189 10.418 23.4937 10.5581 23.8102 10.6812C24.2322 10.8384 24.5311 11.0298 24.8476 11.334C25.1606 11.6416 25.3575 11.9321 25.5193 12.3423C25.6423 12.6499 25.79 13.1113 25.8287 13.9658C25.8709 14.8887 25.8815 15.1655 25.8815 17.5034C25.8815 19.8413 25.8709 20.1182 25.8252 21.041C25.7795 21.8955 25.6318 22.357 25.5087 22.6646C25.3399 23.0747 25.15 23.3653 24.8335 23.6729C24.5205 23.9771 24.2146 24.1685 23.7996 24.3257C23.4831 24.4453 23.0013 24.5889 22.1222 24.6265C21.1657 24.6675 20.8843 24.6778 18.4754 24.6778C16.0665 24.6778 15.7852 24.6675 14.8287 24.6231C13.9495 24.5786 13.4677 24.4351 13.1512 24.3155C12.7257 24.1514 12.4303 23.9668 12.1174 23.6592C11.8009 23.355 11.6004 23.0576 11.4422 22.6543C11.3191 22.3467 11.1714 21.8784 11.1257 21.0239C11.0905 20.1045 11.0799 19.8208 11.0799 17.4932C11.0799 15.1621 11.0905 14.8784 11.1257 13.9487C11.1714 13.0942 11.3156 12.626 11.4422 12.3184C11.6004 11.9014 11.8009 11.6177 12.1174 11.3101C12.4303 11.0059 12.7257 10.8076 13.1512 10.6538C13.4677 10.5342 13.939 10.3906 14.8181 10.3462C15.7747 10.312 16.056 10.3018 18.4649 10.3018L18.5001 10.3257ZM18.5001 13.0054C15.947 13.0054 13.8757 15.0186 13.8757 17.5C13.8757 19.9815 15.947 21.9946 18.5001 21.9946C21.0531 21.9946 23.1244 19.9815 23.1244 17.5C23.1244 15.0186 21.0531 13.0054 18.5001 13.0054ZM18.5001 20.4155C16.8437 20.4155 15.5004 19.1099 15.5004 17.5C15.5004 15.8901 16.8437 14.5845 18.5001 14.5845C20.1564 14.5845 21.4997 15.8901 21.4997 17.5C21.4997 19.1099 20.1564 20.4155 18.5001 20.4155ZM24.3869 12.8311C24.3869 13.4121 23.9016 13.8804 23.3073 13.8804C22.7095 13.8804 22.2277 13.4087 22.2277 12.8311C22.2277 12.2534 22.713 11.7817 23.3073 11.7817C23.9016 11.7783 24.3869 12.25 24.3869 12.8311Z" fill="white"/>
</svg>
