<svg width="202" height="44" viewBox="0 0 202 44" fill="none" xmlns="http://www.w3.org/2000/svg">
<g clip-path="url(#clip0_852_508)">
<path d="M38.7515 30.8554V40.9145H28.7559L38.7515 30.8554Z" fill="#F15E3C"/>
<path d="M9.28895 28.1225H0V14.1754L13.987 0.226044H37.2607L9.28895 28.1225Z" fill="#43C3D7"/>
<path d="M24.7667 40.8738H1.49304L29.4648 12.9774H38.7514V26.9267L24.7667 40.8738Z" fill="#43C3D7"/>
<path d="M24.475 12.9774L9.28894 28.1225H14.2765L29.4648 12.9774H24.475Z" fill="#444444"/>
<path d="M1.20129 12.9774L0 14.1754V28.1225H9.28896L24.475 12.9774H1.20129Z" fill="url(#paint0_linear_852_508)"/>
<path d="M29.4648 12.9774L14.2765 28.1225H37.5502L38.7515 26.9267V12.9774H29.4648Z" fill="url(#paint1_linear_852_508)"/>
<path d="M0 10.5044V0.226044H10.1688L0 10.5044Z" fill="#FCB44B"/>
<path d="M69.8324 33.8279H68.875V41.3666H69.8324V33.8279ZM71.6446 36.1675V41.3666H72.5108V38.2019C72.4969 38.0287 72.5202 37.8545 72.5791 37.6909C72.6381 37.5272 72.7313 37.3778 72.8527 37.2525C72.9767 37.1094 73.1307 36.9948 73.3039 36.9167C73.4771 36.8386 73.6654 36.7989 73.8557 36.8004C74.0104 36.7927 74.1648 36.8202 74.3071 36.8809C74.4494 36.9417 74.5757 37.034 74.6763 37.1508C74.8131 37.3316 74.8701 37.5803 74.8701 38.0437V41.3666H75.7363V37.8515C75.7363 37.1395 75.6223 36.7778 75.2804 36.4613C74.9405 36.1751 74.5066 36.0224 74.0609 36.0319C73.4112 36.0319 72.9553 36.2805 72.4994 36.8908V36.1675H71.6446ZM77.4436 36.1675V41.3666H78.3098V38.2019C78.2959 38.0287 78.3192 37.8545 78.3782 37.6909C78.4371 37.5272 78.5304 37.3778 78.6518 37.2525C78.7757 37.1094 78.9297 36.9948 79.1029 36.9167C79.2761 36.8386 79.4645 36.7989 79.6547 36.8004C79.8094 36.7927 79.9639 36.8202 80.1061 36.8809C80.2484 36.9417 80.3747 37.034 80.4754 37.1508C80.6121 37.3316 80.6691 37.5803 80.6691 38.0437V41.3666H81.5353V37.8515C81.5353 37.1395 81.4214 36.7778 81.0794 36.4613C80.7395 36.1751 80.3057 36.0224 79.8599 36.0319C79.2102 36.0319 78.7543 36.2805 78.2984 36.8908V36.1675H77.4436ZM85.5108 36.0432C83.9151 36.0432 82.821 37.1508 82.821 38.767C82.821 40.3833 83.9151 41.5022 85.4766 41.5022C85.8339 41.5032 86.1879 41.4333 86.5177 41.2968C86.8474 41.1602 87.1464 40.9597 87.3969 40.7071C87.6475 40.4544 87.8446 40.1546 87.9768 39.8253C88.1089 39.4961 88.1734 39.1439 88.1664 38.7896C88.1664 37.1734 87.0608 36.0319 85.5108 36.0319V36.0432ZM85.5108 36.8343C86.5707 36.8343 87.2774 37.6142 87.2774 38.7783C87.2774 39.9425 86.5365 40.711 85.4994 40.711C84.428 40.711 83.71 39.9312 83.71 38.7783C83.71 37.6255 84.428 36.823 85.5108 36.823V36.8343ZM92.4769 36.1675L90.9496 40.1459L89.468 36.1675H88.5562L90.4824 41.3666H91.3942L93.3773 36.1675H92.4769ZM98.1392 37.0265C97.9342 36.7165 97.6529 36.4636 97.3218 36.2915C96.9907 36.1194 96.6209 36.034 96.2472 36.0432C94.7997 36.0432 93.7398 37.196 93.7398 38.7896C93.7398 40.3833 94.7655 41.5022 96.213 41.5022C97.0108 41.5022 97.6035 41.1518 98.1278 40.372V41.3666H98.994V36.1675H98.1278L98.1392 37.0265ZM96.3726 36.8004C97.4212 36.8004 98.1506 37.5803 98.1506 38.7105C98.1506 39.8407 97.3414 40.7449 96.3498 40.7449C95.3924 40.7449 94.663 39.9086 94.663 38.8009C94.6597 38.3079 94.811 37.826 95.0961 37.422C95.2358 37.2171 95.4271 37.052 95.651 36.9429C95.8749 36.8339 96.1236 36.7848 96.3726 36.8004ZM101.641 36.9134H102.438V36.1675H101.641V34.5174H100.774V36.1675H100.045V36.9247H100.774V40.5641C100.774 41.1405 101.002 41.3666 101.629 41.3779H102.438V40.6319H102.039C101.72 40.6319 101.652 40.5754 101.641 40.3154V36.9134ZM104.456 36.1675H103.589V41.3666H104.456V36.1675ZM104.034 34.1331C103.924 34.1309 103.815 34.1612 103.722 34.2202C103.629 34.2791 103.555 34.3642 103.511 34.4645C103.467 34.5648 103.453 34.6759 103.473 34.7837C103.492 34.8916 103.543 34.9913 103.62 35.0703C103.696 35.1493 103.795 35.2041 103.903 35.2276C104.01 35.2512 104.123 35.2425 104.226 35.2027C104.329 35.1628 104.417 35.0936 104.481 35.0039C104.544 34.9141 104.579 34.8077 104.581 34.6982C104.583 34.6252 104.571 34.5525 104.545 34.4843C104.518 34.4162 104.479 34.3539 104.428 34.3013C104.377 34.2486 104.316 34.2066 104.248 34.1777C104.18 34.1488 104.108 34.1336 104.034 34.1331ZM109.277 36.1675L107.75 40.1459L106.268 36.1675H105.356L107.282 41.3666H108.194L110.177 36.1675H109.277ZM115.851 39.0496C115.851 38.9253 115.851 38.7783 115.851 38.7105C115.861 38.3593 115.8 38.0096 115.67 37.6828C115.54 37.3559 115.344 37.0586 115.095 36.8091C114.845 36.5596 114.547 36.363 114.219 36.2314C113.89 36.0997 113.538 36.0357 113.184 36.0432C111.645 36.0432 110.54 37.1847 110.54 38.7896C110.54 40.3946 111.657 41.5022 113.218 41.5022C113.701 41.5095 114.176 41.3819 114.589 41.1341C115.002 40.8863 115.337 40.5282 115.555 40.1007L114.791 39.8182C114.63 40.09 114.4 40.3154 114.124 40.4721C113.848 40.6287 113.536 40.7111 113.218 40.711C112.942 40.7143 112.669 40.6513 112.423 40.5273C112.177 40.4033 111.965 40.222 111.805 39.999C111.592 39.7265 111.472 39.394 111.463 39.0496H115.851ZM111.486 38.4167C111.516 38.1043 111.617 37.8028 111.782 37.5351C111.94 37.3087 112.151 37.1243 112.397 36.9981C112.644 36.872 112.918 36.8079 113.195 36.8117C113.478 36.8081 113.759 36.8707 114.013 36.9944C114.267 37.1181 114.488 37.2995 114.659 37.5238C114.845 37.7856 114.948 38.0965 114.955 38.4167H111.486ZM125.001 39.8182C125.559 39.2643 125.628 39.1965 126.198 38.6201L125.616 38.0776C125.103 38.6201 125.035 38.6879 124.533 39.1852L123.109 37.2412C123.384 37.0779 123.64 36.8845 123.872 36.6648C124.175 36.3732 124.351 35.9757 124.363 35.5572C124.363 34.766 123.713 34.1783 122.847 34.1783C121.98 34.1783 121.285 34.7886 121.285 35.5911C121.285 36.0432 121.411 36.2918 121.969 37.0604C120.579 37.9081 120.145 38.4506 120.145 39.3774C120.141 39.6587 120.193 39.9381 120.299 40.1992C120.405 40.4603 120.562 40.6978 120.761 40.8979C120.961 41.0979 121.199 41.2564 121.461 41.364C121.723 41.4717 122.004 41.5263 122.288 41.5248C123.018 41.5248 123.565 41.2309 124.465 40.3494L125.229 41.3779H126.186L125.001 39.8182ZM122.664 36.6422C122.186 36.0206 122.14 35.9188 122.14 35.5911C122.138 35.4984 122.155 35.4063 122.19 35.3206C122.226 35.235 122.279 35.1577 122.347 35.0938C122.415 35.0298 122.495 34.9807 122.583 34.9496C122.671 34.9184 122.765 34.9059 122.858 34.9129C122.948 34.9054 123.038 34.917 123.123 34.947C123.208 34.9769 123.285 35.0246 123.35 35.0867C123.415 35.1488 123.466 35.2239 123.499 35.307C123.532 35.3901 123.546 35.4792 123.542 35.5685C123.549 35.9753 123.355 36.2014 122.671 36.6309L122.664 36.6422ZM123.964 39.7164C123.2 40.5189 122.881 40.7223 122.334 40.7223C121.983 40.7146 121.649 40.5706 121.404 40.3212C121.158 40.0718 121.022 39.7369 121.023 39.3887C121.028 39.183 121.078 38.9807 121.168 38.7955C121.258 38.6103 121.388 38.4465 121.547 38.3149C121.819 38.0814 122.108 37.8698 122.414 37.682L123.964 39.7164ZM131.652 33.8392H130.695V38.2923C130.695 39.4678 130.843 40.0216 131.31 40.5528C131.586 40.8621 131.927 41.1075 132.309 41.2715C132.692 41.4356 133.105 41.5143 133.522 41.5022C133.923 41.5128 134.323 41.4376 134.692 41.2815C135.062 41.1255 135.394 40.8924 135.664 40.598C136.154 40.0555 136.348 39.4113 136.348 38.281V33.8279H135.368V38.2923C135.368 39.2982 135.265 39.6825 134.855 40.0781C134.495 40.4265 134.013 40.6247 133.51 40.6319C133.015 40.6274 132.538 40.4469 132.165 40.1233C131.801 39.7616 131.664 39.2756 131.664 38.3149L131.652 33.8392ZM138.003 36.1675V41.3666H138.869V38.2019C138.855 38.0287 138.879 37.8545 138.938 37.6909C138.997 37.5272 139.09 37.3778 139.211 37.2525C139.335 37.1094 139.489 36.9948 139.662 36.9167C139.836 36.8386 140.024 36.7989 140.214 36.8004C140.369 36.7927 140.523 36.8202 140.666 36.8809C140.808 36.9417 140.934 37.034 141.035 37.1508C141.172 37.3316 141.229 37.5803 141.229 38.0437V41.3666H142.095V37.8515C142.095 37.1395 141.981 36.7778 141.639 36.4613C141.299 36.1751 140.865 36.0224 140.419 36.0319C139.77 36.0319 139.314 36.2805 138.858 36.8908V36.1675H138.003ZM149.745 36.1675L148.377 39.999L147.18 36.1675H146.325L145.117 39.999L143.772 36.1675H142.883L144.684 41.3666H145.505L146.77 37.4107L147.978 41.3666H148.765L150.634 36.1675H149.745ZM155.443 37.0265C155.238 36.7165 154.957 36.4636 154.626 36.2915C154.295 36.1194 153.925 36.034 153.552 36.0432C152.104 36.0432 151.055 37.196 151.055 38.7896C151.055 40.3833 152.081 41.5022 153.529 41.5022C154.327 41.5022 154.919 41.1518 155.443 40.372V41.3666H156.31V36.1675H155.443V37.0265ZM153.677 36.8004C154.725 36.8004 155.455 37.5803 155.455 38.7105C155.455 39.8407 154.646 40.7449 153.654 40.7449C152.663 40.7449 151.967 39.9086 151.967 38.8009C151.964 38.3079 152.115 37.826 152.4 37.422C152.54 37.2164 152.732 37.0508 152.957 36.9418C153.182 36.8327 153.432 36.784 153.681 36.8004H153.677ZM161.16 36.1675L159.633 40.1459L158.152 36.1675H157.24L159.166 41.3666H160.078L162.061 36.1675H161.16ZM167.735 39.0496C167.746 38.9253 167.746 38.7783 167.746 38.7105C167.757 38.3593 167.695 38.0096 167.565 37.6828C167.435 37.3559 167.239 37.0586 166.99 36.8091C166.74 36.5596 166.442 36.363 166.114 36.2314C165.785 36.0997 165.433 36.0357 165.079 36.0432C163.54 36.0432 162.435 37.1847 162.435 38.7896C162.435 40.3946 163.552 41.5022 165.113 41.5022C165.596 41.5095 166.071 41.3819 166.484 41.1341C166.897 40.8863 167.232 40.5282 167.45 40.1007L166.686 39.8182C166.525 40.09 166.295 40.3154 166.019 40.4721C165.743 40.6287 165.431 40.7111 165.113 40.711C164.837 40.7143 164.564 40.6513 164.318 40.5273C164.072 40.4033 163.86 40.222 163.7 39.999C163.487 39.7265 163.368 39.394 163.358 39.0496H167.735ZM163.369 38.4167C163.398 38.1002 163.501 37.7947 163.668 37.5238C163.825 37.2974 164.037 37.113 164.283 36.9868C164.53 36.8607 164.804 36.7966 165.081 36.8004C165.362 36.7993 165.639 36.8631 165.89 36.9867C166.141 37.1103 166.36 37.2903 166.529 37.5125C166.715 37.7743 166.818 38.0852 166.825 38.4054L163.369 38.4167ZM169 36.1675V41.3666H169.866V38.7218C169.866 38.1228 169.946 37.8176 170.174 37.4899C170.298 37.3034 170.467 37.1509 170.666 37.0463C170.866 36.9416 171.088 36.8882 171.313 36.8908C171.389 36.8864 171.465 36.8864 171.541 36.8908V36.0319H171.336C170.976 36.0256 170.624 36.1368 170.333 36.3483C170.11 36.5273 169.943 36.7668 169.854 37.0378V36.1675H169ZM173.406 36.1675H172.54V41.3666H173.406V36.1675ZM172.984 34.1331C172.874 34.1309 172.765 34.1612 172.672 34.2202C172.579 34.2791 172.506 34.3642 172.461 34.4645C172.417 34.5648 172.404 34.6759 172.423 34.7837C172.442 34.8916 172.494 34.9913 172.57 35.0703C172.647 35.1493 172.745 35.2041 172.853 35.2276C172.961 35.2512 173.073 35.2425 173.176 35.2027C173.279 35.1628 173.368 35.0936 173.431 35.0039C173.494 34.9141 173.529 34.8077 173.531 34.6982C173.534 34.6245 173.521 34.551 173.494 34.4822C173.467 34.4135 173.427 34.3508 173.375 34.298C173.323 34.2452 173.261 34.2034 173.192 34.175C173.123 34.1467 173.049 34.1324 172.975 34.1331H172.984ZM175.143 36.1675V41.3666H176.009V38.2019C175.995 38.0287 176.019 37.8545 176.077 37.6909C176.136 37.5272 176.23 37.3778 176.351 37.2525C176.475 37.1094 176.629 36.9948 176.802 36.9167C176.975 36.8386 177.164 36.7989 177.354 36.8004C177.509 36.7927 177.663 36.8202 177.805 36.8809C177.948 36.9417 178.074 37.034 178.175 37.1508C178.311 37.3316 178.368 37.5803 178.368 38.0437V41.3666H179.235V37.8515C179.235 37.1395 179.121 36.7778 178.779 36.4613C178.439 36.1751 178.005 36.0224 177.559 36.0319C176.91 36.0319 176.454 36.2805 175.998 36.8908V36.1675H175.143ZM184.808 37.0604C184.272 36.337 183.737 36.0432 182.939 36.0432C182.635 36.0311 182.331 36.0788 182.045 36.1835C181.76 36.2883 181.498 36.448 181.275 36.6535C181.001 36.9378 180.787 37.2729 180.644 37.6394C180.501 38.0059 180.433 38.3968 180.443 38.7896C180.443 40.338 181.48 41.5022 182.87 41.5022C183.691 41.5022 184.295 41.1518 184.808 40.3833V41.4796C184.839 41.9288 184.697 42.3729 184.411 42.7228C184.228 42.8928 184.013 43.0251 183.779 43.1124C183.544 43.1997 183.294 43.2402 183.044 43.2315C182.614 43.2341 182.191 43.1291 181.813 42.9263C181.629 42.7944 181.461 42.6428 181.311 42.4742L180.719 43.0619C181.288 43.6948 182.063 44.0113 183.044 44.0113C183.754 44.0467 184.45 43.8031 184.981 43.3332C185.46 42.8811 185.665 42.2934 185.665 41.4231V36.1675H184.799L184.808 37.0604ZM183.098 36.8343C183.339 36.8399 183.577 36.8939 183.796 36.993C184.016 37.092 184.212 37.2342 184.375 37.4107C184.683 37.7498 184.785 38.1115 184.785 38.7896C184.805 39.2483 184.673 39.7008 184.409 40.0781C184.245 40.2722 184.042 40.4291 183.812 40.5383C183.582 40.6475 183.331 40.7064 183.076 40.711C182.084 40.711 181.355 39.8747 181.355 38.7557C181.355 37.6368 182.063 36.823 183.089 36.823L183.098 36.8343Z" fill="#444444"/>
<path d="M202 25.9728H94.0955V26.3118H202V25.9728Z" fill="#444444"/>
<path d="M79.5658 25.9728H52.4398V26.3118H79.5658V25.9728Z" fill="#444444"/>
<path d="M54.6624 0.135634C54.9656 0.125751 55.2676 0.178297 55.5493 0.289958C55.831 0.401619 56.0863 0.56997 56.2991 0.784387C56.5129 1.00542 56.6797 1.26676 56.7897 1.55294C56.8998 1.83911 56.9507 2.14428 56.9396 2.45035C56.9467 2.74865 56.8924 3.04524 56.7799 3.32198C56.6674 3.59873 56.4991 3.84979 56.2854 4.0598C55.8455 4.48342 55.2552 4.7184 54.6421 4.71396C54.029 4.70951 53.4422 4.46601 53.0086 4.03606C52.575 3.60611 52.3295 3.02424 52.325 2.41622C52.3205 1.80819 52.5575 1.22284 52.9847 0.78665C53.2045 0.570029 53.4668 0.400472 53.7554 0.288489C54.044 0.176506 54.3527 0.124481 54.6624 0.135634ZM56.7983 6.2389V19.3067H52.4672V6.23211L56.7983 6.2389Z" fill="#444444"/>
<path d="M59.1598 13.599H63.6846C63.6638 13.7009 63.6546 13.8047 63.6572 13.9087C63.6621 14.1493 63.7253 14.3853 63.8416 14.5965C63.9578 14.8078 64.1237 14.9882 64.3251 15.1225C64.7788 15.4638 65.3355 15.643 65.9048 15.6311C66.4067 15.6471 66.899 15.4924 67.2999 15.1926C67.4733 15.0743 67.6156 14.9165 67.7147 14.7325C67.8139 14.5484 67.867 14.3434 67.8697 14.1347C67.8729 13.9282 67.8253 13.724 67.7312 13.5397C67.6371 13.3554 67.4992 13.1965 67.3295 13.0768C66.9693 12.8025 66.2391 12.4687 65.1389 12.0754C63.0722 11.3415 61.592 10.5089 60.6985 9.5776C59.8049 8.64629 59.3589 7.45578 59.3604 6.00606C59.3604 4.23838 59.9629 2.81277 61.168 1.72925C62.3731 0.645737 63.9627 0.104733 65.9367 0.10624C67.1211 0.0889943 68.2928 0.350037 69.356 0.868017C70.3327 1.34096 71.1487 2.08657 71.7039 3.0132C72.2384 3.944 72.5823 4.97028 72.716 6.03319H68.0202C67.888 4.77185 67.1859 4.14118 65.9139 4.14118C65.4238 4.11501 64.94 4.25976 64.5462 4.55032C64.3806 4.67883 64.2478 4.84425 64.1587 5.03316C64.0696 5.22207 64.0267 5.42915 64.0333 5.63761C64.0333 6.20272 64.3274 6.65482 64.9155 6.99389C65.2195 7.20185 65.9405 7.51228 67.0788 7.9252C69.0133 8.65909 70.3605 9.36436 71.1203 10.041C72.1841 11.0024 72.716 12.263 72.716 13.8228C72.716 15.5724 72.0899 16.9836 70.8377 18.0566C69.5855 19.1296 67.9427 19.6661 65.9094 19.6661C63.8426 19.6661 62.2014 19.1205 60.9857 18.0295C59.7699 16.9384 59.1613 15.4616 59.1598 13.599Z" fill="#444444"/>
<path d="M85.659 6.23211H89.99V25.0595H85.659V18.2578C84.501 19.2931 83.0398 19.8107 81.2755 19.8107C79.3395 19.8107 77.7598 19.171 76.5364 17.8916C75.3131 16.6122 74.7052 14.9658 74.7128 12.9525C74.7128 10.8246 75.3625 9.09159 76.6618 7.7534C77.9611 6.4152 79.6259 5.74234 81.6562 5.7348C83.3278 5.7348 84.6659 6.29012 85.6704 7.40077L85.659 6.23211ZM84.8042 10.3009C84.5145 9.98207 84.1607 9.72683 83.7656 9.55163C83.3705 9.37643 82.9428 9.28515 82.51 9.28366C82.0772 9.28217 81.6488 9.3705 81.2525 9.54297C80.8562 9.71545 80.5006 9.96825 80.2087 10.2851C79.6257 11.0118 79.3097 11.9137 79.3126 12.8422C79.3155 13.7708 79.6372 14.6707 80.2247 15.3938C80.4979 15.7211 80.8416 15.9836 81.2306 16.1619C81.6195 16.3403 82.0438 16.43 82.4722 16.4246C82.9085 16.4257 83.3398 16.332 83.7356 16.15C84.1314 15.968 84.4822 15.7022 84.7631 15.3712C85.3902 14.6863 85.7287 13.7892 85.7091 12.8643C85.7435 11.9248 85.4177 11.0073 84.7973 10.2964L84.8042 10.3009Z" fill="#444444"/>
<path d="M100.943 6.23212H105.274V14.4467C105.274 16.2912 104.752 17.6369 103.708 18.4838C102.588 19.3684 101.089 19.8107 99.2105 19.8107C97.1605 19.8107 95.5953 19.3308 94.5148 18.3708C93.5468 17.5435 93.0627 16.2354 93.0627 14.4467V6.23212H97.3938V14.1438C97.3938 15.5543 98.0017 16.2595 99.2174 16.2595C99.4529 16.2735 99.6887 16.238 99.9095 16.1554C100.13 16.0729 100.331 15.945 100.498 15.7803C100.819 15.414 100.983 14.9378 100.954 14.4534L100.943 6.23212Z" fill="#444444"/>
<path d="M118.447 7.64265V6.23212H122.778V19.2999H118.447V17.8328C117.899 18.4729 117.213 18.9828 116.44 19.3247C115.667 19.6667 114.826 19.832 113.979 19.8085C112.101 19.8085 110.555 19.1643 109.341 17.8758C108.126 16.5873 107.519 14.9455 107.517 12.9502C107.517 10.8616 108.162 9.13531 109.452 7.7715C110.743 6.40768 112.375 5.72577 114.349 5.72577C115.905 5.72426 117.271 6.36323 118.447 7.64265ZM115.288 9.28149C114.857 9.2688 114.428 9.35218 114.033 9.52548C113.639 9.69878 113.289 9.95759 113.008 10.2829C112.42 10.961 112.126 11.811 112.126 12.8666C112.1 13.7926 112.425 14.6946 113.038 15.3938C113.307 15.719 113.646 15.9804 114.03 16.1587C114.415 16.3371 114.834 16.4279 115.258 16.4246C115.695 16.4275 116.127 16.3346 116.524 16.1525C116.92 15.9703 117.271 15.7036 117.551 15.3712C118.185 14.6709 118.526 13.7575 118.504 12.8169C118.542 11.8878 118.222 10.9793 117.608 10.2761C117.32 9.95087 116.962 9.69305 116.56 9.5211C116.159 9.34915 115.725 9.26732 115.288 9.28149Z" fill="#444444"/>
<path d="M126.02 6.23211H130.351V8.0111C130.655 7.18377 131.035 6.60961 131.491 6.28862C132.05 5.904 132.718 5.70606 133.399 5.7235H133.825V10.1269C133.408 10.0885 133.141 10.0704 133.027 10.0704C132.021 10.0704 131.272 10.4185 130.779 11.1147C130.494 11.4922 130.353 12.1681 130.353 13.1491V19.3021H126.022L126.02 6.23211Z" fill="#444444"/>
<path d="M149.414 13.6826H139.423C139.544 14.3643 139.914 14.9777 140.463 15.4051C141.032 15.8288 141.73 16.048 142.441 16.0267C143.693 16.0267 144.557 15.5468 145.031 14.5868L149.015 15.604C148.522 16.6419 147.791 17.5507 146.879 18.2578C145.597 19.2772 143.998 19.8258 142.355 19.8107C140.209 19.8107 138.439 19.1424 137.046 17.8057C135.652 16.469 134.952 14.7661 134.946 12.6971C134.946 10.6265 135.61 8.94694 136.939 7.65847C138.267 6.37001 139.994 5.72577 142.12 5.72577C144.302 5.72577 146.062 6.40768 147.399 7.7715C148.736 9.13531 149.405 10.9279 149.405 13.1492V13.6826H149.414ZM139.384 11.3973H144.992C144.688 9.98676 143.739 9.28073 142.145 9.27922C140.616 9.28224 139.7 9.98826 139.396 11.3973H139.384Z" fill="#444444"/>
<path d="M154.504 14.0556C154.618 16.1917 155.779 17.3152 157.848 17.3152C159.975 17.3152 161.477 16.0222 161.477 14.1392C161.477 12.5094 160.627 11.7499 157.65 10.7666C155.412 10.0071 154.673 9.63637 153.823 8.88363C152.859 8.01335 152.348 6.77462 152.348 5.34149C152.348 2.16553 154.643 0 157.987 0C161.331 0 163.515 2.10902 163.6 5.36861H161.217C161.19 4.41243 161.076 3.9626 160.762 3.42913C160.224 2.6131 159.166 2.10901 157.956 2.10901C156.084 2.10901 154.753 3.37488 154.753 5.17195C154.742 5.59194 154.835 6.00817 155.022 6.38495C155.21 6.76173 155.486 7.08781 155.829 7.33522C156.424 7.75793 156.934 7.98171 158.86 8.65533C160.873 9.35834 161.838 9.86468 162.601 10.6784C163.436 11.5829 163.891 12.7687 163.875 13.9946C163.875 17.227 161.466 19.4197 157.924 19.4197C155.514 19.4197 153.871 18.5765 152.879 16.8902C152.437 16.151 152.211 15.3039 152.227 14.4444V14.0511H154.507L154.504 14.0556Z" fill="#444444"/>
<path d="M179.533 12.6586C179.533 16.4539 176.586 19.4039 172.843 19.4039C168.968 19.4039 166.232 16.5941 166.232 12.6021C166.232 8.61013 168.954 5.82071 172.92 5.82071C176.784 5.81845 179.533 8.6576 179.533 12.6586ZM168.45 12.6315C168.45 15.4978 170.235 17.4373 172.9 17.4373C175.48 17.4373 177.322 15.4413 177.322 12.6315C177.322 9.73584 175.565 7.79636 172.93 7.79636C170.235 7.78732 168.455 9.72002 168.455 12.6225L168.45 12.6315Z" fill="#444444"/>
<path d="M185.2 19.0851H183.044V8.00882H181.259V6.12585H183.044V4.38529C183.044 1.79932 184.375 0.31645 186.643 0.31645C186.842 0.314266 187.04 0.323322 187.238 0.343574V2.26045C185.622 2.4865 185.186 2.90695 185.186 4.3966V6.13942H187.238V8.02238H185.186L185.2 19.0851Z" fill="#444444"/>
<path d="M192.909 16.4449C192.909 17.0643 193.137 17.2315 193.901 17.2315H194.897V19.0874H192.884C191.382 19.0874 190.758 18.4974 190.758 17.0643V8.0224H188.934V6.13943H190.758V2.07059H192.912V6.13943H194.895V8.0224H192.912V16.4539L192.909 16.4449Z" fill="#444444"/>
</g>
<defs>
<linearGradient id="paint0_linear_852_508" x1="24.6231" y1="18.945" x2="0.228528" y2="20.9998" gradientUnits="userSpaceOnUse">
<stop stop-color="#444444"/>
<stop offset="0.13" stop-color="#4B5A5A"/>
<stop offset="0.32" stop-color="#517B7F"/>
<stop offset="0.51" stop-color="#5197A1"/>
<stop offset="0.69" stop-color="#4DADBC"/>
<stop offset="0.86" stop-color="#47BBCE"/>
<stop offset="1" stop-color="#43C3D7"/>
</linearGradient>
<linearGradient id="paint1_linear_852_508" x1="16.2916" y1="20.5499" x2="35.3869" y2="20.5499" gradientUnits="userSpaceOnUse">
<stop stop-color="#444444"/>
<stop offset="0.08" stop-color="#474D4D"/>
<stop offset="0.72" stop-color="#509BA5"/>
<stop offset="1" stop-color="#43C3D7"/>
</linearGradient>
<clipPath id="clip0_852_508">
<rect width="202" height="44" fill="white"/>
</clipPath>
</defs>
</svg>
