<svg width="202" height="44" viewBox="0 0 202 44" fill="none" xmlns="http://www.w3.org/2000/svg">
<mask id="mask0_1077_5" style="mask-type:alpha" maskUnits="userSpaceOnUse" x="0" y="0" width="202" height="44">
<g clip-path="url(#clip0_1077_5)">
<path d="M69.8324 33.8281H68.875V41.3668H69.8324V33.8281ZM71.6446 36.1677V41.3668H72.5108V38.2021C72.4969 38.0289 72.5202 37.8547 72.5791 37.6911C72.6381 37.5274 72.7313 37.378 72.8527 37.2527C72.9767 37.1096 73.1307 36.995 73.3039 36.9169C73.4771 36.8388 73.6654 36.7991 73.8557 36.8006C74.0104 36.7929 74.1648 36.8204 74.3071 36.8812C74.4494 36.9419 74.5757 37.0342 74.6763 37.151C74.8131 37.3318 74.8701 37.5805 74.8701 38.0439V41.3668H75.7363V37.8518C75.7363 37.1397 75.6223 36.778 75.2804 36.4616C74.9405 36.1754 74.5066 36.0226 74.0609 36.0321C73.4112 36.0321 72.9553 36.2807 72.4994 36.8911V36.1677H71.6446ZM77.4436 36.1677V41.3668H78.3098V38.2021C78.2959 38.0289 78.3192 37.8547 78.3782 37.6911C78.4371 37.5274 78.5304 37.378 78.6518 37.2527C78.7757 37.1096 78.9297 36.995 79.1029 36.9169C79.2761 36.8388 79.4645 36.7991 79.6547 36.8006C79.8094 36.7929 79.9639 36.8204 80.1061 36.8812C80.2484 36.9419 80.3747 37.0342 80.4754 37.151C80.6121 37.3318 80.6691 37.5805 80.6691 38.0439V41.3668H81.5353V37.8518C81.5353 37.1397 81.4214 36.778 81.0794 36.4616C80.7395 36.1754 80.3057 36.0226 79.8599 36.0321C79.2102 36.0321 78.7543 36.2807 78.2984 36.8911V36.1677H77.4436ZM85.5108 36.0434C83.9151 36.0434 82.821 37.151 82.821 38.7672C82.821 40.3835 83.9151 41.5024 85.4766 41.5024C85.8339 41.5034 86.1879 41.4335 86.5177 41.297C86.8474 41.1605 87.1464 40.96 87.3969 40.7073C87.6475 40.4546 87.8446 40.1548 87.9768 39.8256C88.1089 39.4963 88.1734 39.1442 88.1664 38.7898C88.1664 37.1736 87.0608 36.0321 85.5108 36.0321V36.0434ZM85.5108 36.8345C86.5707 36.8345 87.2774 37.6144 87.2774 38.7785C87.2774 39.9427 86.5365 40.7112 85.4994 40.7112C84.428 40.7112 83.71 39.9314 83.71 38.7785C83.71 37.6257 84.428 36.8232 85.5108 36.8232V36.8345ZM92.4769 36.1677L90.9496 40.1461L89.468 36.1677H88.5562L90.4824 41.3668H91.3942L93.3773 36.1677H92.4769ZM98.1392 37.0267C97.9342 36.7167 97.6529 36.4638 97.3218 36.2917C96.9907 36.1197 96.6209 36.0342 96.2472 36.0434C94.7997 36.0434 93.7398 37.1962 93.7398 38.7898C93.7398 40.3835 94.7655 41.5024 96.213 41.5024C97.0108 41.5024 97.6035 41.152 98.1278 40.3722V41.3668H98.994V36.1677H98.1278L98.1392 37.0267ZM96.3726 36.8006C97.4212 36.8006 98.1506 37.5805 98.1506 38.7107C98.1506 39.841 97.3414 40.7452 96.3498 40.7452C95.3924 40.7452 94.663 39.9088 94.663 38.8012C94.6597 38.3081 94.811 37.8262 95.0961 37.4223C95.2358 37.2173 95.4271 37.0522 95.651 36.9431C95.8749 36.8341 96.1236 36.785 96.3726 36.8006ZM101.641 36.9137H102.438V36.1677H101.641V34.5176H100.774V36.1677H100.045V36.925H100.774V40.5643C100.774 41.1407 101.002 41.3668 101.629 41.3781H102.438V40.6321H102.039C101.72 40.6321 101.652 40.5756 101.641 40.3157V36.9137ZM104.456 36.1677H103.589V41.3668H104.456V36.1677ZM104.034 34.1333C103.924 34.1311 103.815 34.1614 103.722 34.2204C103.629 34.2794 103.555 34.3644 103.511 34.4647C103.467 34.565 103.453 34.6761 103.473 34.784C103.492 34.8918 103.543 34.9915 103.62 35.0705C103.696 35.1495 103.795 35.2043 103.903 35.2278C104.01 35.2514 104.123 35.2427 104.226 35.2029C104.329 35.1631 104.417 35.0939 104.481 35.0041C104.544 34.9143 104.579 34.8079 104.581 34.6984C104.583 34.6254 104.571 34.5527 104.545 34.4845C104.518 34.4164 104.479 34.3541 104.428 34.3015C104.377 34.2488 104.316 34.2068 104.248 34.1779C104.18 34.149 104.108 34.1338 104.034 34.1333ZM109.277 36.1677L107.75 40.1461L106.268 36.1677H105.356L107.282 41.3668H108.194L110.177 36.1677H109.277ZM115.851 39.0498C115.851 38.9255 115.851 38.7785 115.851 38.7107C115.861 38.3595 115.8 38.0098 115.67 37.683C115.54 37.3561 115.344 37.0589 115.095 36.8093C114.845 36.5598 114.547 36.3632 114.219 36.2316C113.89 36.0999 113.538 36.0359 113.184 36.0434C111.645 36.0434 110.54 37.1849 110.54 38.7898C110.54 40.3948 111.657 41.5024 113.218 41.5024C113.701 41.5097 114.176 41.3821 114.589 41.1343C115.002 40.8865 115.337 40.5284 115.555 40.1009L114.791 39.8184C114.63 40.0902 114.4 40.3157 114.124 40.4723C113.848 40.6289 113.536 40.7113 113.218 40.7112C112.942 40.7145 112.669 40.6515 112.423 40.5275C112.177 40.4035 111.965 40.2222 111.805 39.9992C111.592 39.7267 111.472 39.3942 111.463 39.0498H115.851ZM111.486 38.4169C111.516 38.1045 111.617 37.8031 111.782 37.5353C111.94 37.3089 112.151 37.1245 112.397 36.9983C112.644 36.8722 112.918 36.8082 113.195 36.8119C113.478 36.8083 113.759 36.8709 114.013 36.9946C114.267 37.1183 114.488 37.2997 114.659 37.524C114.845 37.7859 114.948 38.0967 114.955 38.4169H111.486ZM125.001 39.8184C125.559 39.2645 125.628 39.1967 126.198 38.6203L125.616 38.0778C125.103 38.6203 125.035 38.6881 124.533 39.1854L123.109 37.2414C123.384 37.0781 123.64 36.8847 123.872 36.665C124.175 36.3735 124.351 35.9759 124.363 35.5574C124.363 34.7662 123.713 34.1785 122.847 34.1785C121.98 34.1785 121.285 34.7888 121.285 35.5913C121.285 36.0434 121.411 36.292 121.969 37.0606C120.579 37.9083 120.145 38.4508 120.145 39.3776C120.141 39.6589 120.193 39.9383 120.299 40.1994C120.405 40.4605 120.562 40.6981 120.761 40.8981C120.961 41.0981 121.199 41.2566 121.461 41.3642C121.723 41.4719 122.004 41.5266 122.288 41.525C123.018 41.525 123.565 41.2312 124.465 40.3496L125.229 41.3781H126.186L125.001 39.8184ZM122.664 36.6424C122.186 36.0208 122.14 35.9191 122.14 35.5913C122.138 35.4986 122.155 35.4065 122.19 35.3208C122.226 35.2352 122.279 35.1579 122.347 35.094C122.415 35.0301 122.495 34.9809 122.583 34.9498C122.671 34.9186 122.765 34.9062 122.858 34.9131C122.948 34.9056 123.038 34.9172 123.123 34.9472C123.208 34.9771 123.285 35.0248 123.35 35.0869C123.415 35.149 123.466 35.2241 123.499 35.3072C123.532 35.3903 123.546 35.4794 123.542 35.5687C123.549 35.9756 123.355 36.2016 122.671 36.6311L122.664 36.6424ZM123.964 39.7166C123.2 40.5191 122.881 40.7226 122.334 40.7226C121.983 40.7149 121.649 40.5708 121.404 40.3214C121.158 40.072 121.022 39.7371 121.023 39.3889C121.028 39.1832 121.078 38.9809 121.168 38.7957C121.258 38.6105 121.388 38.4467 121.547 38.3151C121.819 38.0816 122.108 37.87 122.414 37.6822L123.964 39.7166ZM131.652 33.8394H130.695V38.2925C130.695 39.468 130.843 40.0218 131.31 40.553C131.586 40.8623 131.927 41.1077 132.309 41.2717C132.692 41.4358 133.105 41.5145 133.522 41.5024C133.923 41.513 134.323 41.4378 134.692 41.2817C135.062 41.1257 135.394 40.8926 135.664 40.5982C136.154 40.0557 136.348 39.4115 136.348 38.2812V33.8281H135.368V38.2925C135.368 39.2985 135.265 39.6827 134.855 40.0783C134.495 40.4267 134.013 40.6249 133.51 40.6321C133.015 40.6276 132.538 40.4472 132.165 40.1235C131.801 39.7618 131.664 39.2758 131.664 38.3151L131.652 33.8394ZM138.003 36.1677V41.3668H138.869V38.2021C138.855 38.0289 138.879 37.8547 138.938 37.6911C138.997 37.5274 139.09 37.378 139.211 37.2527C139.335 37.1096 139.489 36.995 139.662 36.9169C139.836 36.8388 140.024 36.7991 140.214 36.8006C140.369 36.7929 140.523 36.8204 140.666 36.8812C140.808 36.9419 140.934 37.0342 141.035 37.151C141.172 37.3318 141.229 37.5805 141.229 38.0439V41.3668H142.095V37.8518C142.095 37.1397 141.981 36.778 141.639 36.4616C141.299 36.1754 140.865 36.0226 140.419 36.0321C139.77 36.0321 139.314 36.2807 138.858 36.8911V36.1677H138.003ZM149.745 36.1677L148.377 39.9992L147.18 36.1677H146.325L145.117 39.9992L143.772 36.1677H142.883L144.684 41.3668H145.505L146.77 37.411L147.978 41.3668H148.765L150.634 36.1677H149.745ZM155.443 37.0267C155.238 36.7167 154.957 36.4638 154.626 36.2917C154.295 36.1197 153.925 36.0342 153.552 36.0434C152.104 36.0434 151.055 37.1962 151.055 38.7898C151.055 40.3835 152.081 41.5024 153.529 41.5024C154.327 41.5024 154.919 41.152 155.443 40.3722V41.3668H156.31V36.1677H155.443V37.0267ZM153.677 36.8006C154.725 36.8006 155.455 37.5805 155.455 38.7107C155.455 39.841 154.646 40.7452 153.654 40.7452C152.663 40.7452 151.967 39.9088 151.967 38.8012C151.964 38.3081 152.115 37.8262 152.4 37.4223C152.54 37.2166 152.732 37.0511 152.957 36.942C153.182 36.8329 153.432 36.7842 153.681 36.8006H153.677ZM161.16 36.1677L159.633 40.1461L158.152 36.1677H157.24L159.166 41.3668H160.078L162.061 36.1677H161.16ZM167.735 39.0498C167.746 38.9255 167.746 38.7785 167.746 38.7107C167.757 38.3595 167.695 38.0098 167.565 37.683C167.435 37.3561 167.239 37.0589 166.99 36.8093C166.74 36.5598 166.442 36.3632 166.114 36.2316C165.785 36.0999 165.433 36.0359 165.079 36.0434C163.54 36.0434 162.435 37.1849 162.435 38.7898C162.435 40.3948 163.552 41.5024 165.113 41.5024C165.596 41.5097 166.071 41.3821 166.484 41.1343C166.897 40.8865 167.232 40.5284 167.45 40.1009L166.686 39.8184C166.525 40.0902 166.295 40.3157 166.019 40.4723C165.743 40.6289 165.431 40.7113 165.113 40.7112C164.837 40.7145 164.564 40.6515 164.318 40.5275C164.072 40.4035 163.86 40.2222 163.7 39.9992C163.487 39.7267 163.368 39.3942 163.358 39.0498H167.735ZM163.369 38.4169C163.398 38.1004 163.501 37.7949 163.668 37.524C163.825 37.2976 164.037 37.1132 164.283 36.987C164.53 36.8609 164.804 36.7969 165.081 36.8006C165.362 36.7995 165.639 36.8633 165.89 36.9869C166.141 37.1105 166.36 37.2905 166.529 37.5127C166.715 37.7746 166.818 38.0854 166.825 38.4056L163.369 38.4169ZM169 36.1677V41.3668H169.866V38.722C169.866 38.123 169.946 37.8178 170.174 37.4901C170.298 37.3037 170.467 37.1512 170.666 37.0465C170.866 36.9419 171.088 36.8884 171.313 36.8911C171.389 36.8866 171.465 36.8866 171.541 36.8911V36.0321H171.336C170.976 36.0259 170.624 36.137 170.333 36.3485C170.11 36.5276 169.943 36.7671 169.854 37.038V36.1677H169ZM173.406 36.1677H172.54V41.3668H173.406V36.1677ZM172.984 34.1333C172.874 34.1311 172.765 34.1614 172.672 34.2204C172.579 34.2794 172.506 34.3644 172.461 34.4647C172.417 34.565 172.404 34.6761 172.423 34.784C172.442 34.8918 172.494 34.9915 172.57 35.0705C172.647 35.1495 172.745 35.2043 172.853 35.2278C172.961 35.2514 173.073 35.2427 173.176 35.2029C173.279 35.1631 173.368 35.0939 173.431 35.0041C173.494 34.9143 173.529 34.8079 173.531 34.6984C173.534 34.6247 173.521 34.5512 173.494 34.4824C173.467 34.4137 173.427 34.351 173.375 34.2982C173.323 34.2454 173.261 34.2036 173.192 34.1753C173.123 34.1469 173.049 34.1326 172.975 34.1333H172.984ZM175.143 36.1677V41.3668H176.009V38.2021C175.995 38.0289 176.019 37.8547 176.077 37.6911C176.136 37.5274 176.23 37.378 176.351 37.2527C176.475 37.1096 176.629 36.995 176.802 36.9169C176.975 36.8388 177.164 36.7991 177.354 36.8006C177.509 36.7929 177.663 36.8204 177.805 36.8812C177.948 36.9419 178.074 37.0342 178.175 37.151C178.311 37.3318 178.368 37.5805 178.368 38.0439V41.3668H179.235V37.8518C179.235 37.1397 179.121 36.778 178.779 36.4616C178.439 36.1754 178.005 36.0226 177.559 36.0321C176.91 36.0321 176.454 36.2807 175.998 36.8911V36.1677H175.143ZM184.808 37.0606C184.272 36.3372 183.737 36.0434 182.939 36.0434C182.635 36.0313 182.331 36.079 182.045 36.1837C181.76 36.2885 181.498 36.4482 181.275 36.6537C181.001 36.938 180.787 37.2731 180.644 37.6396C180.501 38.0062 180.433 38.397 180.443 38.7898C180.443 40.3383 181.48 41.5024 182.87 41.5024C183.691 41.5024 184.295 41.152 184.808 40.3835V41.4798C184.839 41.929 184.697 42.3731 184.411 42.7231C184.228 42.893 184.013 43.0254 183.779 43.1126C183.544 43.1999 183.294 43.2404 183.044 43.2317C182.614 43.2343 182.191 43.1293 181.813 42.9265C181.629 42.7946 181.461 42.643 181.311 42.4744L180.719 43.0621C181.288 43.6951 182.063 44.0115 183.044 44.0115C183.754 44.0469 184.45 43.8033 184.981 43.3334C185.46 42.8813 185.665 42.2936 185.665 41.4233V36.1677H184.799L184.808 37.0606ZM183.098 36.8345C183.339 36.8402 183.577 36.8941 183.796 36.9932C184.016 37.0923 184.212 37.2344 184.375 37.411C184.683 37.75 184.785 38.1117 184.785 38.7898C184.805 39.2485 184.673 39.701 184.409 40.0783C184.245 40.2724 184.042 40.4293 183.812 40.5385C183.582 40.6477 183.331 40.7066 183.076 40.7112C182.084 40.7112 181.355 39.8749 181.355 38.7559C181.355 37.637 182.063 36.8232 183.089 36.8232L183.098 36.8345Z" fill="#444444"/>
<path d="M202 25.9727H94.0955V26.3117H202V25.9727Z" fill="#444444"/>
<path d="M79.5658 25.9727H52.4398V26.3117H79.5658V25.9727Z" fill="#444444"/>
<path d="M54.6624 0.135756C54.9656 0.125873 55.2676 0.178419 55.5493 0.29008C55.831 0.401741 56.0863 0.570092 56.2991 0.784509C56.5129 1.00554 56.6797 1.26689 56.7897 1.55306C56.8998 1.83923 56.9507 2.1444 56.9396 2.45047C56.9467 2.74877 56.8924 3.04536 56.7799 3.32211C56.6674 3.59885 56.4991 3.84991 56.2854 4.05992C55.8455 4.48354 55.2552 4.71852 54.6421 4.71408C54.029 4.70963 53.4422 4.46613 53.0086 4.03618C52.575 3.60623 52.3295 3.02436 52.325 2.41634C52.3205 1.80831 52.5575 1.22296 52.9847 0.786772C53.2045 0.570151 53.4668 0.400594 53.7554 0.288611C54.044 0.176628 54.3527 0.124603 54.6624 0.135756ZM56.7983 6.23902V19.3068H52.4672V6.23224L56.7983 6.23902Z" fill="#444444"/>
<path d="M59.1598 13.599H63.6846C63.6638 13.7009 63.6546 13.8048 63.6572 13.9087C63.6621 14.1493 63.7253 14.3853 63.8416 14.5966C63.9578 14.8079 64.1237 14.9883 64.3251 15.1226C64.7788 15.4638 65.3355 15.6431 65.9048 15.6312C66.4067 15.6472 66.899 15.4924 67.2999 15.1926C67.4733 15.0744 67.6156 14.9166 67.7147 14.7325C67.8139 14.5484 67.867 14.3434 67.8697 14.1347C67.8729 13.9282 67.8253 13.724 67.7312 13.5397C67.6371 13.3554 67.4992 13.1966 67.3295 13.0768C66.9693 12.8026 66.2391 12.4688 65.1389 12.0754C63.0722 11.3416 61.592 10.5089 60.6985 9.57763C59.8049 8.64632 59.3589 7.45581 59.3604 6.00609C59.3604 4.23841 59.9629 2.8128 61.168 1.72929C62.3731 0.645768 63.9627 0.104764 65.9367 0.106271C67.1211 0.0890248 68.2928 0.350067 69.356 0.868047C70.3327 1.341 71.1487 2.0866 71.7039 3.01323C72.2384 3.94403 72.5823 4.97031 72.716 6.03322H68.0202C67.888 4.77188 67.1859 4.14121 65.9139 4.14121C65.4238 4.11504 64.94 4.25979 64.5462 4.55035C64.3806 4.67886 64.2478 4.84428 64.1587 5.03319C64.0696 5.2221 64.0267 5.42918 64.0333 5.63764C64.0333 6.20275 64.3274 6.65485 64.9155 6.99392C65.2195 7.20188 65.9405 7.51232 67.0788 7.92523C69.0133 8.65913 70.3605 9.3644 71.1203 10.041C72.1841 11.0025 72.716 12.2631 72.716 13.8228C72.716 15.5724 72.0899 16.9837 70.8377 18.0566C69.5855 19.1296 67.9427 19.6661 65.9094 19.6661C63.8426 19.6661 62.2014 19.1206 60.9857 18.0295C59.7699 16.9385 59.1613 15.4616 59.1598 13.599Z" fill="#444444"/>
<path d="M85.659 6.23217H89.99V25.0596H85.659V18.2579C84.501 19.2931 83.0398 19.8108 81.2755 19.8108C79.3395 19.8108 77.7598 19.1711 76.5364 17.8917C75.3131 16.6122 74.7052 14.9659 74.7128 12.9525C74.7128 10.8247 75.3625 9.09166 76.6618 7.75346C77.9611 6.41526 79.6259 5.7424 81.6562 5.73486C83.3278 5.73486 84.6659 6.29018 85.6704 7.40083L85.659 6.23217ZM84.8042 10.301C84.5145 9.98213 84.1607 9.72689 83.7656 9.55169C83.3705 9.37649 82.9428 9.28521 82.51 9.28372C82.0772 9.28223 81.6488 9.37056 81.2525 9.54303C80.8562 9.71551 80.5006 9.96831 80.2087 10.2852C79.6257 11.0118 79.3097 11.9137 79.3126 12.8423C79.3155 13.7709 79.6372 14.6708 80.2247 15.3938C80.4979 15.7212 80.8416 15.9836 81.2306 16.162C81.6195 16.3404 82.0438 16.4301 82.4722 16.4246C82.9085 16.4258 83.3398 16.3321 83.7356 16.1501C84.1314 15.9681 84.4822 15.7022 84.7631 15.3712C85.3902 14.6863 85.7287 13.7892 85.7091 12.8644C85.7435 11.9249 85.4177 11.0074 84.7973 10.2965L84.8042 10.301Z" fill="#444444"/>
<path d="M100.943 6.23193H105.274V14.4465C105.274 16.291 104.752 17.6367 103.708 18.4837C102.588 19.3683 101.089 19.8106 99.2105 19.8106C97.1605 19.8106 95.5953 19.3306 94.5148 18.3706C93.5468 17.5433 93.0627 16.2353 93.0627 14.4465V6.23193H97.3938V14.1436C97.3938 15.5541 98.0017 16.2594 99.2174 16.2594C99.4529 16.2733 99.6887 16.2378 99.9095 16.1552C100.13 16.0727 100.331 15.9449 100.498 15.7801C100.819 15.4138 100.983 14.9376 100.954 14.4533L100.943 6.23193Z" fill="#444444"/>
<path d="M118.447 7.64247V6.23194H122.778V19.2997H118.447V17.8327C117.899 18.4727 117.213 18.9826 116.44 19.3245C115.667 19.6665 114.826 19.8318 113.979 19.8083C112.101 19.8083 110.555 19.1641 109.341 17.8756C108.126 16.5871 107.519 14.9453 107.517 12.95C107.517 10.8614 108.162 9.13513 109.452 7.77132C110.743 6.4075 112.375 5.72559 114.349 5.72559C115.905 5.72408 117.271 6.36304 118.447 7.64247ZM115.288 9.28131C114.857 9.26862 114.428 9.352 114.033 9.5253C113.639 9.6986 113.289 9.95741 113.008 10.2827C112.42 10.9608 112.126 11.8108 112.126 12.8664C112.1 13.7924 112.425 14.6944 113.038 15.3936C113.307 15.7188 113.646 15.9802 114.03 16.1585C114.415 16.3369 114.834 16.4277 115.258 16.4244C115.695 16.4273 116.127 16.3344 116.524 16.1523C116.92 15.9702 117.271 15.7034 117.551 15.371C118.185 14.6708 118.526 13.7573 118.504 12.8167C118.542 11.8876 118.222 10.9791 117.608 10.2759C117.32 9.95069 116.962 9.69287 116.56 9.52092C116.159 9.34896 115.725 9.26714 115.288 9.28131Z" fill="#444444"/>
<path d="M126.02 6.23232H130.351V8.01131C130.655 7.18398 131.035 6.60982 131.491 6.28884C132.05 5.90421 132.718 5.70627 133.399 5.72372H133.825V10.1271C133.408 10.0887 133.141 10.0706 133.027 10.0706C132.021 10.0706 131.272 10.4187 130.779 11.1149C130.494 11.4924 130.353 12.1683 130.353 13.1494V19.3023H126.022L126.02 6.23232Z" fill="#444444"/>
<path d="M149.414 13.6824H139.423C139.544 14.3641 139.914 14.9775 140.463 15.4049C141.032 15.8286 141.73 16.0478 142.441 16.0265C143.693 16.0265 144.557 15.5466 145.031 14.5866L149.015 15.6038C148.522 16.6417 147.791 17.5506 146.879 18.2576C145.597 19.277 143.998 19.8256 142.355 19.8106C140.209 19.8106 138.439 19.1422 137.046 17.8055C135.652 16.4688 134.952 14.766 134.946 12.6969C134.946 10.6263 135.61 8.94676 136.939 7.65829C138.267 6.36982 139.994 5.72559 142.12 5.72559C144.302 5.72559 146.062 6.4075 147.399 7.77131C148.736 9.13513 149.405 10.9277 149.405 13.149V13.6824H149.414ZM139.384 11.3971H144.992C144.688 9.98657 143.739 9.28055 142.145 9.27904C140.616 9.28206 139.7 9.98808 139.396 11.3971H139.384Z" fill="#444444"/>
<path d="M154.504 14.0556C154.618 16.1917 155.779 17.3152 157.848 17.3152C159.975 17.3152 161.477 16.0222 161.477 14.1392C161.477 12.5094 160.627 11.7499 157.65 10.7666C155.412 10.0071 154.673 9.63637 153.823 8.88363C152.859 8.01335 152.348 6.77462 152.348 5.34149C152.348 2.16553 154.643 0 157.987 0C161.331 0 163.515 2.10902 163.6 5.36861H161.217C161.19 4.41243 161.076 3.9626 160.762 3.42913C160.224 2.6131 159.166 2.10901 157.956 2.10901C156.084 2.10901 154.753 3.37488 154.753 5.17195C154.742 5.59194 154.835 6.00817 155.022 6.38495C155.21 6.76173 155.486 7.08781 155.829 7.33522C156.424 7.75793 156.934 7.98171 158.86 8.65533C160.873 9.35834 161.838 9.86468 162.601 10.6784C163.436 11.5829 163.891 12.7687 163.875 13.9946C163.875 17.227 161.466 19.4197 157.924 19.4197C155.514 19.4197 153.871 18.5765 152.879 16.8902C152.437 16.151 152.211 15.3039 152.227 14.4444V14.0511H154.507L154.504 14.0556Z" fill="#444444"/>
<path d="M179.533 12.6587C179.533 16.454 176.586 19.404 172.843 19.404C168.968 19.404 166.232 16.5942 166.232 12.6022C166.232 8.61022 168.954 5.8208 172.92 5.8208C176.784 5.81854 179.533 8.65769 179.533 12.6587ZM168.45 12.6316C168.45 15.4979 170.235 17.4373 172.9 17.4373C175.48 17.4373 177.322 15.4414 177.322 12.6316C177.322 9.73593 175.565 7.79645 172.93 7.79645C170.235 7.78741 168.455 9.72011 168.455 12.6225L168.45 12.6316Z" fill="#444444"/>
<path d="M185.2 19.0849H183.044V8.00861H181.259V6.12564H183.044V4.38508C183.044 1.7991 184.375 0.316236 186.643 0.316236C186.842 0.314052 187.04 0.323108 187.238 0.343361V2.26024C185.622 2.48629 185.186 2.90674 185.186 4.39638V6.1392H187.238V8.02217H185.186L185.2 19.0849Z" fill="#444444"/>
<path d="M192.909 16.4451C192.909 17.0645 193.137 17.2318 193.901 17.2318H194.897V19.0876H192.884C191.382 19.0876 190.758 18.4976 190.758 17.0645V8.02261H188.934V6.13964H190.758V2.0708H192.912V6.13964H194.895V8.02261H192.912V16.4542L192.909 16.4451Z" fill="#444444"/>
</g>
</mask>
<g mask="url(#mask0_1077_5)">
<rect x="52" width="150" height="44" fill="white"/>
</g>
<defs>
<clipPath id="clip0_1077_5">
<rect width="202" height="44" fill="white"/>
</clipPath>
</defs>
</svg>
