<svg width="48" height="48" viewBox="0 0 48 48" fill="none" xmlns="http://www.w3.org/2000/svg">
<rect width="47.7143" height="48" rx="10" fill="#FCE7F6"/>
<path d="M11.625 12C11.2798 12 11 12.2612 11 12.5834V34.9683C11 35.2543 11.1187 35.5274 11.3278 35.7225C11.5188 35.9008 11.7704 36 12.0317 36H36.0892C36.4344 36 36.7143 35.7388 36.7143 35.4166C36.7143 35.0944 36.4344 34.8333 36.0892 34.8333H14.2501C13.1455 34.8333 12.2501 33.9378 12.2501 32.8333V12.5834C12.2501 12.2612 11.9702 12 11.625 12Z" fill="#C11574"/>
<path fill-rule="evenodd" clip-rule="evenodd" d="M16.6254 27.1478C15.4943 27.1357 14.5045 27.855 14.2397 28.8814C13.975 29.9078 14.5057 30.9687 15.5187 31.4383C16.5318 31.908 17.7582 31.6616 18.4745 30.8445C19.1908 30.0274 19.2068 28.8567 18.513 28.0229L21.4382 24.0209C21.692 24.1013 21.9577 24.1446 22.2257 24.1493C22.9107 24.1552 23.5657 23.8877 24.0259 23.4142L26.626 25.141C26.5861 25.3096 26.5651 25.4817 26.5635 25.6544C26.5635 26.8916 27.6381 27.8945 28.9637 27.8945C30.2893 27.8945 31.3639 26.8916 31.3639 25.6544C31.362 25.1475 31.172 24.6569 30.8263 24.2659L33.614 20.2873C34.749 20.6213 35.9737 20.1198 36.4788 19.1141C36.984 18.1084 36.6137 16.909 35.6126 16.3084C34.6116 15.7077 33.2888 15.8913 32.5182 16.7377C31.7476 17.5842 31.7672 18.8322 32.564 19.6573L29.7888 23.5775C29.5131 23.4799 29.2211 23.4286 28.9262 23.4259C28.2709 23.4255 27.6436 23.6741 27.1886 24.1143L24.5759 22.4108C24.5889 22.2594 24.5889 22.1072 24.5759 21.9558C24.6268 20.9435 23.9432 20.0254 22.9089 19.7169C21.8746 19.4085 20.7473 19.7865 20.1599 20.6388C19.5724 21.491 19.6711 22.6053 20.4006 23.3559L17.5129 27.3111C17.2313 27.2033 16.9298 27.1478 16.6254 27.1478ZM34.3141 17.1021C34.9493 17.1021 35.4642 17.5827 35.4642 18.1755C35.4642 18.7683 34.9493 19.2489 34.3141 19.2489C33.6789 19.2489 33.164 18.7683 33.164 18.1755C33.164 17.5827 33.6789 17.1021 34.3141 17.1021ZM30.0763 25.6544C30.0763 25.0615 29.5614 24.581 28.9262 24.581C28.291 24.581 27.7761 25.0615 27.7761 25.6544C27.7761 26.2472 28.291 26.7278 28.9262 26.7278C29.5614 26.7278 30.0763 26.2472 30.0763 25.6544ZM22.2257 20.8357C22.8609 20.8357 23.3758 21.3163 23.3758 21.9091C23.3758 22.5019 22.8609 22.9825 22.2257 22.9825C21.5905 22.9825 21.0756 22.5019 21.0756 21.9091C21.0756 21.3163 21.5905 20.8357 22.2257 20.8357ZM15.5606 29.7931C15.7371 30.1971 16.1579 30.4612 16.6254 30.4613C17.2509 30.4615 17.7618 29.995 17.7754 29.4113C17.7856 28.9751 17.5119 28.5766 17.0831 28.4031C16.6542 28.2296 16.1555 28.3155 15.8214 28.6206C15.4873 28.9257 15.3842 29.3892 15.5606 29.7931Z" fill="#C11574"/>
</svg>
