<svg width="53" height="53" viewBox="0 0 53 53" fill="none" xmlns="http://www.w3.org/2000/svg">
<path d="M48.1637 8.70081C44.7629 17.1808 36.2387 28.7083 29.1058 34.4279L24.7554 37.9171C24.2033 38.3146 23.6512 38.6679 23.0329 38.9108C23.0329 38.5133 23.0108 38.0716 22.9445 37.6521C22.7016 35.7971 21.8624 34.0746 20.3829 32.595C18.8812 31.0933 17.0483 30.21 15.1712 29.9671C14.7295 29.945 14.2879 29.9008 13.8462 29.945C14.0891 29.2604 14.4645 28.62 14.9283 28.09L18.3733 23.7396C24.0708 16.6066 35.6424 8.03831 44.1004 4.65956C45.4033 4.17372 46.662 4.52706 47.457 5.34414C48.2962 6.16122 48.6937 7.41997 48.1637 8.70081Z" stroke="#7F56D9" stroke-width="1.5" stroke-linecap="round" stroke-linejoin="round"/>
<path d="M31.4466 31.9547C31.4466 26.1909 26.765 21.5093 21.0012 21.5093M23.0329 38.9109C23.0329 41.3401 22.1054 43.6589 20.3608 45.4255C19.0137 46.7726 17.1808 47.7001 14.9945 47.9872L9.56204 48.5834C6.60287 48.9147 4.06329 46.3972 4.41662 43.3939L5.01287 37.9614C5.54287 33.1251 9.58412 30.0334 13.8683 29.9451C14.31 29.923 14.7737 29.9451 15.1933 29.9672C17.0704 30.2101 18.9033 31.0714 20.405 32.5951C21.8845 34.0747 22.7237 35.7972 22.9666 37.6522C22.9887 38.0718 23.0329 38.4914 23.0329 38.9109Z" stroke="#7F56D9" stroke-width="1.5" stroke-linecap="round" stroke-linejoin="round"/>
<path d="M29.7462 46.0879C32.9925 49.3342 36.2829 49.3342 39.5292 46.0879L46.0658 39.5512C49.3562 36.2608 49.3562 33.0146 46.0658 29.7242L44.4317 28.1121L37.895 34.6267M6.86791 23.2096C3.62166 19.9192 3.62166 16.6729 6.86791 13.3825L13.4046 6.84582C16.6508 3.59957 19.9412 3.59957 23.1875 6.84582L24.8217 8.47999M24.8437 8.50207L16.6729 16.6729" stroke="#7F56D9" stroke-width="1.5" stroke-linecap="round"/>
</svg>
