<svg width="53" height="53" viewBox="0 0 53 53" fill="none" xmlns="http://www.w3.org/2000/svg">
<path d="M39.3084 4.6376L17.3796 10.1364C14.1775 10.9314 10.9313 14.1776 10.1363 17.3797L4.63754 39.3084C2.98129 45.9334 7.04462 50.0189 13.6917 48.3626L35.6205 42.8859C38.8005 42.0909 42.0688 38.8226 42.8638 35.6426L48.3625 13.6918C50.0188 7.06677 45.9334 2.98135 39.3084 4.6376Z" stroke="#7F56D9" stroke-width="1.5" stroke-linecap="round" stroke-linejoin="round"/>
<path d="M26.5 34.2291C27.515 34.2291 28.5201 34.0292 29.4579 33.6407C30.3956 33.2523 31.2477 32.683 31.9654 31.9653C32.6831 31.2475 33.2524 30.3955 33.6409 29.4577C34.0293 28.52 34.2292 27.5149 34.2292 26.4999C34.2292 25.4849 34.0293 24.4798 33.6409 23.5421C33.2524 22.6043 32.6831 21.7523 31.9654 21.0346C31.2477 20.3169 30.3956 19.7475 29.4579 19.3591C28.5201 18.9707 27.515 18.7708 26.5 18.7708C24.4501 18.7708 22.4842 19.5851 21.0347 21.0346C19.5852 22.4841 18.7709 24.45 18.7709 26.4999C18.7709 28.5498 19.5852 30.5158 21.0347 31.9653C22.4842 33.4148 24.4501 34.2291 26.5 34.2291Z" stroke="#7F56D9" stroke-width="1.5" stroke-linecap="round" stroke-linejoin="round"/>
</svg>
